<svg xmlns="http://www.w3.org/2000/svg" viewBox="0 0 64 64" role="img" aria-label="r0b5k3f0 favicon">
  <defs>
    <linearGradient id="aurora" x1="8" y1="6" x2="56" y2="58" gradientUnits="userSpaceOnUse">
      <stop offset="0" stop-color="#6ee7ff"/>
      <stop offset="0.42" stop-color="#ba7cff"/>
      <stop offset="0.74" stop-color="#ff6ec7"/>
      <stop offset="1" stop-color="#ffd166"/>
    </linearGradient>
    <radialGradient id="core" cx="32" cy="26" r="30" gradientUnits="userSpaceOnUse">
      <stop offset="0" stop-color="#ffffff" stop-opacity="0.96"/>
      <stop offset="0.18" stop-color="#6ee7ff" stop-opacity="0.86"/>
      <stop offset="0.62" stop-color="#ba7cff" stop-opacity="0.28"/>
      <stop offset="1" stop-color="#080a1a" stop-opacity="0"/>
    </radialGradient>
    <filter id="glow" x="-30%" y="-30%" width="160%" height="160%">
      <feGaussianBlur stdDeviation="2.2" result="blur"/>
      <feColorMatrix in="blur" type="matrix" values="0 0 0 0 0.43 0 0 0 0 0.91 0 0 0 0 1 0 0 0 .85 0" result="cyan"/>
      <feMerge><feMergeNode in="cyan"/><feMergeNode in="SourceGraphic"/></feMerge>
    </filter>
  </defs>
  <rect width="64" height="64" rx="16" fill="#070812"/>
  <path d="M10 41C18 18 38 9 55 17" fill="none" stroke="url(#aurora)" stroke-width="5.8" stroke-linecap="round" opacity="0.78"/>
  <path d="M9 47C23 55 42 54 55 40" fill="none" stroke="url(#aurora)" stroke-width="3" stroke-linecap="round" opacity="0.62"/>
  <circle cx="32" cy="32" r="23" fill="url(#core)" opacity="0.92"/>
  <circle cx="32" cy="32" r="19" fill="none" stroke="url(#aurora)" stroke-width="2.2" opacity="0.92"/>
  <path d="M23 43V23h11.5c4.9 0 8.5 3.1 8.5 7.6 0 3.1-1.6 5.5-4.4 6.8L45 43h-8.2l-5.2-5.2H30V43h-7Zm7-11.3h3.7c1.5 0 2.5-.8 2.5-2.1 0-1.3-1-2.1-2.5-2.1H30v4.2Z" fill="#f8fbff" filter="url(#glow)"/>
  <circle cx="49" cy="17" r="3.2" fill="#75f7b1" filter="url(#glow)"/>
</svg>
